<svg height="2430" width="720" xmlns="http://www.w3.org/2000/svg">
<rect height="2430" fill="#555" width="720"></rect>
<text fill="#7f7" font-family="Courier New" font-size="12" xml:space="preserve">
<tspan x="10" y="26">19 megabytes installed</tspan>
<tspan x="10" y="42"></tspan>
<tspan x="10" y="58">node_modules</tspan>
<tspan x="10" y="74">└─┬ mockgoose@7.3.1 </tspan>
<tspan x="10" y="90">  ├─┬ async@2.1.5 </tspan>
<tspan x="10" y="106">  │ └── lodash@4.17.4 </tspan>
<tspan x="10" y="122">  ├─┬ debug@2.2.0 </tspan>
<tspan x="10" y="138">  │ └── ms@0.7.1 </tspan>
<tspan x="10" y="154">  ├─┬ fs-extra@2.1.2 </tspan>
<tspan x="10" y="170">  │ ├── graceful-fs@4.1.11 </tspan>
<tspan x="10" y="186">  │ └── jsonfile@2.4.0 </tspan>
<tspan x="10" y="202">  ├─┬ https-proxy-agent@1.0.0 </tspan>
<tspan x="10" y="218">  │ ├─┬ agent-base@2.0.1 </tspan>
<tspan x="10" y="234">  │ │ └── semver@5.0.3 </tspan>
<tspan x="10" y="250">  │ └── extend@3.0.0 </tspan>
<tspan x="10" y="266">  ├─┬ mongodb-prebuilt@6.3.1 </tspan>
<tspan x="10" y="282">  │ ├─┬ glob@7.1.1 </tspan>
<tspan x="10" y="298">  │ │ ├── fs.realpath@1.0.0 </tspan>
<tspan x="10" y="314">  │ │ ├─┬ inflight@1.0.6 </tspan>
<tspan x="10" y="330">  │ │ │ └── wrappy@1.0.2 </tspan>
<tspan x="10" y="346">  │ │ ├── inherits@2.0.3 </tspan>
<tspan x="10" y="362">  │ │ ├─┬ minimatch@3.0.3 </tspan>
<tspan x="10" y="378">  │ │ │ └─┬ brace-expansion@1.1.7 </tspan>
<tspan x="10" y="394">  │ │ │   ├── balanced-match@0.4.2 </tspan>
<tspan x="10" y="410">  │ │ │   └── concat-map@0.0.1 </tspan>
<tspan x="10" y="426">  │ │ ├── once@1.4.0 </tspan>
<tspan x="10" y="442">  │ │ └── path-is-absolute@1.0.1 </tspan>
<tspan x="10" y="458">  │ ├─┬ mongodb-download@2.2.1 </tspan>
<tspan x="10" y="474">  │ │ ├─┬ decompress@4.1.0 </tspan>
<tspan x="10" y="490">  │ │ │ ├─┬ decompress-tar@4.1.0 </tspan>
<tspan x="10" y="506">  │ │ │ │ ├── file-type@3.9.0 </tspan>
<tspan x="10" y="522">  │ │ │ │ ├── is-stream@1.1.0 </tspan>
<tspan x="10" y="538">  │ │ │ │ └─┬ tar-stream@1.5.2 </tspan>
<tspan x="10" y="554">  │ │ │ │   ├── bl@1.2.0 </tspan>
<tspan x="10" y="570">  │ │ │ │   ├── end-of-stream@1.4.0 </tspan>
<tspan x="10" y="586">  │ │ │ │   └── xtend@4.0.1 </tspan>
<tspan x="10" y="602">  │ │ │ ├─┬ decompress-tarbz2@4.1.0 </tspan>
<tspan x="10" y="618">  │ │ │ │ ├─┬ seek-bzip@1.0.5 </tspan>
<tspan x="10" y="634">  │ │ │ │ │ └─┬ commander@2.8.1 </tspan>
<tspan x="10" y="650">  │ │ │ │ │   └── graceful-readlink@1.0.1 </tspan>
<tspan x="10" y="666">  │ │ │ │ └─┬ unbzip2-stream@1.0.11 </tspan>
<tspan x="10" y="682">  │ │ │ │   ├─┬ buffer@3.6.0 </tspan>
<tspan x="10" y="698">  │ │ │ │   │ ├── base64-js@0.0.8 </tspan>
<tspan x="10" y="714">  │ │ │ │   │ └── ieee754@1.1.8 </tspan>
<tspan x="10" y="730">  │ │ │ │   └── through@2.3.8 </tspan>
<tspan x="10" y="746">  │ │ │ ├── decompress-targz@4.0.0 </tspan>
<tspan x="10" y="762">  │ │ │ ├─┬ decompress-unzip@4.0.1 </tspan>
<tspan x="10" y="778">  │ │ │ │ ├─┬ get-stream@2.3.1 </tspan>
<tspan x="10" y="794">  │ │ │ │ │ ├── object-assign@4.1.1 </tspan>
<tspan x="10" y="810">  │ │ │ │ │ └─┬ pinkie-promise@2.0.1 </tspan>
<tspan x="10" y="826">  │ │ │ │ │   └── pinkie@2.0.4 </tspan>
<tspan x="10" y="842">  │ │ │ │ └─┬ yauzl@2.8.0 </tspan>
<tspan x="10" y="858">  │ │ │ │   ├── buffer-crc32@0.2.13 </tspan>
<tspan x="10" y="874">  │ │ │ │   └─┬ fd-slicer@1.0.1 </tspan>
<tspan x="10" y="890">  │ │ │ │     └── pend@1.2.0 </tspan>
<tspan x="10" y="906">  │ │ │ ├── pify@2.3.0 </tspan>
<tspan x="10" y="922">  │ │ │ └─┬ strip-dirs@2.0.0 </tspan>
<tspan x="10" y="938">  │ │ │   └── is-natural-number@4.0.1 </tspan>
<tspan x="10" y="954">  │ │ ├─┬ getos@2.8.4 </tspan>
<tspan x="10" y="970">  │ │ │ └── async@2.1.4 </tspan>
<tspan x="10" y="986">  │ │ ├── md5-file@3.1.1 </tspan>
<tspan x="10" y="1002">  │ │ ├─┬ request@2.81.0 </tspan>
<tspan x="10" y="1018">  │ │ │ ├── aws-sign2@0.6.0 </tspan>
<tspan x="10" y="1034">  │ │ │ ├── aws4@1.6.0 </tspan>
<tspan x="10" y="1050">  │ │ │ ├── caseless@0.12.0 </tspan>
<tspan x="10" y="1066">  │ │ │ ├─┬ combined-stream@1.0.5 </tspan>
<tspan x="10" y="1082">  │ │ │ │ └── delayed-stream@1.0.0 </tspan>
<tspan x="10" y="1098">  │ │ │ ├── forever-agent@0.6.1 </tspan>
<tspan x="10" y="1114">  │ │ │ ├─┬ form-data@2.1.4 </tspan>
<tspan x="10" y="1130">  │ │ │ │ └── asynckit@0.4.0 </tspan>
<tspan x="10" y="1146">  │ │ │ ├─┬ har-validator@4.2.1 </tspan>
<tspan x="10" y="1162">  │ │ │ │ ├─┬ ajv@4.11.7 </tspan>
<tspan x="10" y="1178">  │ │ │ │ │ ├── co@4.6.0 </tspan>
<tspan x="10" y="1194">  │ │ │ │ │ └─┬ json-stable-stringify@1.0.1 </tspan>
<tspan x="10" y="1210">  │ │ │ │ │   └── jsonify@0.0.0 </tspan>
<tspan x="10" y="1226">  │ │ │ │ └── har-schema@1.0.5 </tspan>
<tspan x="10" y="1242">  │ │ │ ├─┬ hawk@3.1.3 </tspan>
<tspan x="10" y="1258">  │ │ │ │ ├── boom@2.10.1 </tspan>
<tspan x="10" y="1274">  │ │ │ │ ├── cryptiles@2.0.5 </tspan>
<tspan x="10" y="1290">  │ │ │ │ ├── hoek@2.16.3 </tspan>
<tspan x="10" y="1306">  │ │ │ │ └── sntp@1.0.9 </tspan>
<tspan x="10" y="1322">  │ │ │ ├─┬ http-signature@1.1.1 </tspan>
<tspan x="10" y="1338">  │ │ │ │ ├── assert-plus@0.2.0 </tspan>
<tspan x="10" y="1354">  │ │ │ │ ├─┬ jsprim@1.4.0 </tspan>
<tspan x="10" y="1370">  │ │ │ │ │ ├── assert-plus@1.0.0 </tspan>
<tspan x="10" y="1386">  │ │ │ │ │ ├── extsprintf@1.0.2 </tspan>
<tspan x="10" y="1402">  │ │ │ │ │ ├── json-schema@0.2.3 </tspan>
<tspan x="10" y="1418">  │ │ │ │ │ └── verror@1.3.6 </tspan>
<tspan x="10" y="1434">  │ │ │ │ └─┬ sshpk@1.13.0 </tspan>
<tspan x="10" y="1450">  │ │ │ │   ├── asn1@0.2.3 </tspan>
<tspan x="10" y="1466">  │ │ │ │   ├── assert-plus@1.0.0 </tspan>
<tspan x="10" y="1482">  │ │ │ │   ├── bcrypt-pbkdf@1.0.1 </tspan>
<tspan x="10" y="1498">  │ │ │ │   ├─┬ dashdash@1.14.1 </tspan>
<tspan x="10" y="1514">  │ │ │ │   │ └── assert-plus@1.0.0 </tspan>
<tspan x="10" y="1530">  │ │ │ │   ├── ecc-jsbn@0.1.1 </tspan>
<tspan x="10" y="1546">  │ │ │ │   ├─┬ getpass@0.1.6 </tspan>
<tspan x="10" y="1562">  │ │ │ │   │ └── assert-plus@1.0.0 </tspan>
<tspan x="10" y="1578">  │ │ │ │   ├── jodid25519@1.0.2 </tspan>
<tspan x="10" y="1594">  │ │ │ │   ├── jsbn@0.1.1 </tspan>
<tspan x="10" y="1610">  │ │ │ │   └── tweetnacl@0.14.5 </tspan>
<tspan x="10" y="1626">  │ │ │ ├── is-typedarray@1.0.0 </tspan>
<tspan x="10" y="1642">  │ │ │ ├── isstream@0.1.2 </tspan>
<tspan x="10" y="1658">  │ │ │ ├── json-stringify-safe@5.0.1 </tspan>
<tspan x="10" y="1674">  │ │ │ ├─┬ mime-types@2.1.15 </tspan>
<tspan x="10" y="1690">  │ │ │ │ └── mime-db@1.27.0 </tspan>
<tspan x="10" y="1706">  │ │ │ ├── oauth-sign@0.8.2 </tspan>
<tspan x="10" y="1722">  │ │ │ ├── performance-now@0.2.0 </tspan>
<tspan x="10" y="1738">  │ │ │ ├── qs@6.4.0 </tspan>
<tspan x="10" y="1754">  │ │ │ ├── safe-buffer@5.0.1 </tspan>
<tspan x="10" y="1770">  │ │ │ ├── stringstream@0.0.5 </tspan>
<tspan x="10" y="1786">  │ │ │ ├─┬ tough-cookie@2.3.2 </tspan>
<tspan x="10" y="1802">  │ │ │ │ └── punycode@1.4.1 </tspan>
<tspan x="10" y="1818">  │ │ │ └── tunnel-agent@0.6.0 </tspan>
<tspan x="10" y="1834">  │ │ └─┬ request-promise@4.2.0 </tspan>
<tspan x="10" y="1850">  │ │   ├── bluebird@3.5.0 </tspan>
<tspan x="10" y="1866">  │ │   ├── request-promise-core@1.1.1 </tspan>
<tspan x="10" y="1882">  │ │   └── stealthy-require@1.1.0 </tspan>
<tspan x="10" y="1898">  │ ├─┬ spawn-sync@1.0.15 </tspan>
<tspan x="10" y="1914">  │ │ ├─┬ concat-stream@1.6.0 </tspan>
<tspan x="10" y="1930">  │ │ │ ├─┬ readable-stream@2.2.9 </tspan>
<tspan x="10" y="1946">  │ │ │ │ ├── buffer-shims@1.0.0 </tspan>
<tspan x="10" y="1962">  │ │ │ │ ├── core-util-is@1.0.2 </tspan>
<tspan x="10" y="1978">  │ │ │ │ ├── isarray@1.0.0 </tspan>
<tspan x="10" y="1994">  │ │ │ │ ├── process-nextick-args@1.0.7 </tspan>
<tspan x="10" y="2010">  │ │ │ │ ├── string_decoder@1.0.0 </tspan>
<tspan x="10" y="2026">  │ │ │ │ └── util-deprecate@1.0.2 </tspan>
<tspan x="10" y="2042">  │ │ │ └── typedarray@0.0.6 </tspan>
<tspan x="10" y="2058">  │ │ └── os-shim@0.1.3 </tspan>
<tspan x="10" y="2074">  │ └─┬ yargs@3.32.0 </tspan>
<tspan x="10" y="2090">  │   ├── camelcase@2.1.1 </tspan>
<tspan x="10" y="2106">  │   ├─┬ cliui@3.2.0 </tspan>
<tspan x="10" y="2122">  │   │ ├─┬ strip-ansi@3.0.1 </tspan>
<tspan x="10" y="2138">  │   │ │ └── ansi-regex@2.1.1 </tspan>
<tspan x="10" y="2154">  │   │ └── wrap-ansi@2.1.0 </tspan>
<tspan x="10" y="2170">  │   ├── decamelize@1.2.0 </tspan>
<tspan x="10" y="2186">  │   ├─┬ os-locale@1.4.0 </tspan>
<tspan x="10" y="2202">  │   │ └─┬ lcid@1.0.0 </tspan>
<tspan x="10" y="2218">  │   │   └── invert-kv@1.0.0 </tspan>
<tspan x="10" y="2234">  │   ├─┬ string-width@1.0.2 </tspan>
<tspan x="10" y="2250">  │   │ ├── code-point-at@1.1.0 </tspan>
<tspan x="10" y="2266">  │   │ └─┬ is-fullwidth-code-point@1.0.0 </tspan>
<tspan x="10" y="2282">  │   │   └── number-is-nan@1.0.1 </tspan>
<tspan x="10" y="2298">  │   ├── window-size@0.1.4 </tspan>
<tspan x="10" y="2314">  │   └── y18n@3.2.1 </tspan>
<tspan x="10" y="2330">  ├─┬ portfinder@1.0.13 </tspan>
<tspan x="10" y="2346">  │ ├── async@1.5.2 </tspan>
<tspan x="10" y="2362">  │ └─┬ mkdirp@0.5.1 </tspan>
<tspan x="10" y="2378">  │   └── minimist@0.0.8 </tspan>
<tspan x="10" y="2394">  ├── rimraf@2.6.1 </tspan>
<tspan x="10" y="2410">  └── uuid@3.0.1</tspan>
</text>
</svg>
